<svg width="14" height="18" viewBox="0 0 14 18" fill="none" xmlns="http://www.w3.org/2000/svg">
<path d="M4.04102 0.650391H9.6875C10.0447 0.650541 10.1816 0.886158 10.1816 1V9.62305H12.583C12.8313 9.62316 12.9804 9.74193 13.041 9.84766C13.0717 9.90118 13.0804 9.95161 13.0771 9.99316C13.0749 10.0218 13.0663 10.0589 13.0391 10.1025L13.0039 10.1494L7.28516 16.8408C7.08747 17.072 6.64032 17.0722 6.44238 16.8408H6.44141L0.723633 10.1494C0.668685 10.0851 0.653468 10.0315 0.650391 9.99316C0.647145 9.9516 0.656867 9.90115 0.6875 9.84766C0.748079 9.74203 0.897085 9.62305 1.14551 9.62305H3.54785V1C3.54785 0.885802 3.6844 0.650605 4.04102 0.650391Z" stroke="black" stroke-width="1.3"/>
</svg>
