<svg width="16" height="16" viewBox="0 0 16 16" fill="none" xmlns="http://www.w3.org/2000/svg">
<path d="M4.03573 6.97753L1.74613 3.0114C3.21227 1.17608 5.4688 0 8 0C10.9291 0 13.4896 1.57397 14.8832 3.92239H8.35627C8.2384 3.91173 8.12 3.90639 8 3.90639C6.096 3.90639 4.4912 5.21315 4.03573 6.97753ZM10.8645 5.07821H15.4501C15.8053 5.98387 16 6.969 16 8.00053C16 12.3886 12.4677 15.9509 8.0912 16L11.3627 10.333C11.824 9.67051 12.0939 8.86619 12.0939 8.00053C12.0939 6.85646 11.6229 5.82172 10.8645 5.07821ZM5.09387 8.00053C5.09387 6.39776 6.39787 5.09421 8 5.09421C9.6032 5.09421 10.9061 6.39776 10.9061 8.00053C10.9061 9.60277 9.6032 10.9069 8 10.9069C6.39787 10.9069 5.09387 9.60277 5.09387 8.00053ZM9.09707 11.9448L6.8064 15.9125C2.95413 15.3354 0 12.0131 0 8.00053C0 6.57484 0.373333 5.23662 1.0272 4.07814L4.2928 9.73505C4.9472 11.1277 6.36267 12.0947 8 12.0947C8.38027 12.0947 8.74773 12.0424 9.09707 11.9448Z" fill="black"/>
</svg>
