<svg width="48" height="48" viewBox="0 0 48 48" fill="none" xmlns="http://www.w3.org/2000/svg">
<circle cx="24" cy="24" r="23.5"  stroke="black"/>
<path d="M31.6361 16.8755C30.212 16.2092 28.6893 15.7249 27.0973 15.4492C26.9018 15.8027 26.6734 16.2781 26.5159 16.6563C24.8236 16.4018 23.1469 16.4018 21.4857 16.6563C21.3283 16.2781 21.0947 15.8027 20.8974 15.4492C19.3037 15.7249 17.7793 16.211 16.3552 16.879C13.4828 21.2196 12.7041 25.4524 13.0934 29.6251C14.9986 31.0478 16.8449 31.9121 18.66 32.4776C19.1082 31.8608 19.5079 31.2051 19.8522 30.5141C19.1964 30.2649 18.5683 29.9574 17.9748 29.6004C18.1323 29.4837 18.2863 29.3618 18.4351 29.2363C22.055 30.9294 25.9882 30.9294 29.5648 29.2363C29.7154 29.3618 29.8694 29.4837 30.0251 29.6004C29.4299 29.9591 28.8 30.2666 28.1442 30.5159C28.4885 31.2051 28.8865 31.8626 29.3364 32.4794C31.1533 31.9138 33.0014 31.0496 34.9065 29.6251C35.3633 24.7879 34.1261 20.594 31.6361 16.8755ZM20.3454 27.0589C19.2587 27.0589 18.3676 26.0445 18.3676 24.8091C18.3676 23.5737 19.2397 22.5575 20.3454 22.5575C21.4511 22.5575 22.3423 23.5719 22.3232 24.8091C22.325 26.0445 21.4511 27.0589 20.3454 27.0589ZM27.6545 27.0589C26.5678 27.0589 25.6767 26.0445 25.6767 24.8091C25.6767 23.5737 26.5488 22.5575 27.6545 22.5575C28.7602 22.5575 29.6514 23.5719 29.6323 24.8091C29.6323 26.0445 28.7602 27.0589 27.6545 27.0589Z"  stroke="black"/>
</svg>
