<?xml version="1.0" encoding="UTF-8"?>
<svg id="Layer_1" xmlns="http://www.w3.org/2000/svg" version="1.1" viewBox="0 0 81.5 127">
  <!-- Generator: Adobe Illustrator 29.8.3, SVG Export Plug-In . SVG Version: 2.1.1 Build 3)  -->
  <defs>
    <style>
      .st0 {
        fill: #f6afa6;
      }

      .st1 {
        fill: #ec6751;
      }

      .st2 {
        stroke: #000;
        stroke-width: 2px;
      }

      .st2, .st3 {
        fill: none;
        stroke-linecap: round;
        stroke-linejoin: round;
      }

      .st3 {
        stroke: #fff;
      }
    </style>
  </defs>
  <g>
    <g>
      <path class="st0" d="M69.6,72.6c0,6.1,3.3,7.2,3.3,15.4s-4.3,10-4.3,13.1v16.9h0l-10.7,2.7v-16.9c0-3,4.3-4.9,4.3-13.1s-3.3-9.2-3.3-15.4V17.2c0-5.6-5.7-9-10.7-8.9l9.2-2.3c5.1-1.6,12.3,2,12.3,8.5v58.1Z"/>
      <path class="st1" d="M48.1,8.3c5-.1,10.7,3.3,10.7,8.9v58.2c0,6.1,3.3,7.2,3.3,15.4s-4.3,10-4.3,13.1v16.9l-45.2-7.5c0-12.5-3.9-14.7-3.9-23.5v-17.6c0-7.6,4.7-10.2,8.4-8.8,0-3.1,1.9-6.2,4.7-6.8,1.4-.3,3.1,0,5,1.4.3-1.1.7-2,1.2-2.8,1.4-2.1,3.3-3.1,5.3-3.1,2.6,0,5.4,1.4,7.1,4.1V16.1c0-5.4,3.6-7.7,7.7-7.8Z"/>
      <path class="st0" d="M40.4,50.2v5.8c-1.8-2.7-4.5-4.2-7.1-4.1l7.1-1.8Z"/>
    </g>
    <g>
      <path class="st2" d="M21.8,56.5c-2.8.6-4.7,3.7-4.7,6.8-3.7-1.5-8.4,1.2-8.4,8.8v17.6c0,8.8,3.9,11,3.9,23.5l45.2,7.5v-16.9c0-3,4.3-4.9,4.3-13.1s-3.3-9.2-3.3-15.4V17.2c0-5.6-5.7-9-10.7-8.9-4,0-7.7,2.5-7.7,7.8v39.9c-1.8-2.7-4.5-4.2-7.1-4.1-2,0-4,1-5.3,3.1-.5.8-.9,1.7-1.2,2.8-1.8-1.4-3.5-1.8-5-1.4Z"/>
      <path class="st2" d="M68.6,118v-16.9c0-3,4.3-4.9,4.3-13.1s-3.3-9.2-3.3-15.4V14.5c0-6.5-7.2-10.1-12.3-8.5"/>
      <polyline class="st2" points="46.2 8.8 48.1 8.3 57.3 6"/>
      <line class="st2" x1="57.9" y1="120.7" x2="68.5" y2="118"/>
      <polyline class="st2" points="33 52.1 33.3 52 40.4 50.2"/>
      <polyline class="st2" points="21.8 56.5 28 55.1 28 55.1"/>
    </g>
  </g>
  <g>
    <path class="st3" d="M40.8,81.8c-.3,4.5,1.9,6.4,3.9,7.2"/>
    <path class="st3" d="M56.1,81.8V18.6c0-7-12.5-9.8-12.5,0v48.8"/>
    <path class="st3" d="M33.3,79.8c0,2.4-1.5,4.6-3.9,5.2h0c-2.8.7-5.7-.9-6.4-3.7l-3.5-13.3c-.7-2.8.9-5.7,3.7-6.4h0c2.3-.6,4.7.4,5.9,2.4"/>
    <path class="st3" d="M41.2,85.7c-.3.1-.4.2-.7.3h0c-1.7.5-3.5-.2-4.9-1.6s-1.2-1.7-1.5-2.7l-.6-1.8"/>
    <path class="st3" d="M29.2,63.9l-.4-1.5c-.7-2.8.9-5.7,3.7-6.4h0c2.8-.7,5.7.9,6.4,3.7l1.9,7"/>
    <path class="st3" d="M23.8,83.1c-.7.9-1.7,1.6-2.8,1.9h0c-2.8.7-5.7-.9-6.4-3.7l-2.1-8c-.7-2.8.9-5.7,3.7-6.4h0c1-.3,2.1-.2,3,.1"/>
    <path class="st3" d="M12.4,73.2v17.6c0,3.5,2.9,6.4,2.9,10.1v9l39.5,6.3v-14.5s4-6.1,4-11.8-3-7.3-4.2-11.4c-1.2-4.1-8.6-8.2-10-10.3s-7.3-1-13.9-4.3c-2.7-1-8.6,4.2.1,13.9,3.7,4.3,14.4,4.3,14.4,4.3"/>
    <line class="st3" x1="24.9" y1="94.5" x2="24.2" y2="107.8"/>
    <line class="st3" x1="29.3" y1="95.1" x2="28.6" y2="108.4"/>
    <line class="st3" x1="21.1" y1="102.4" x2="32.6" y2="104.1"/>
    <line class="st3" x1="21.1" y1="98" x2="32.6" y2="99.6"/>
    <path class="st3" d="M37.4,107.5v3.4l9.6,1.6v-3.5c-1.6,0-2.2-.8-2.2-2.2v-14.6l-3.9-.4c-1,2.4-3.8,3.2-5.4,3.4v3.7l4.7.4v7c0,.9-.9,1.3-2.8,1.3Z"/>
  </g>
</svg>