<svg width="10" height="266" viewBox="0 0 10 266" fill="none" xmlns="http://www.w3.org/2000/svg">
<path d="M5.55159 265.022L5.55159 258.756L6.48759 258.756L6.48759 265.022L5.55159 265.022ZM5.55159 257.367L5.55159 251.101L6.48759 251.101L6.48759 257.367L5.55159 257.367ZM5.55159 249.711L5.55159 243.445L6.48759 243.445L6.48759 249.711L5.55159 249.711ZM5.55159 242.056L5.55159 235.79L6.48759 235.79L6.48759 242.056L5.55159 242.056ZM5.55159 234.401L5.55159 228.135L6.48759 228.135L6.48759 234.401L5.55159 234.401ZM5.55159 226.746L5.55159 220.48L6.48759 220.48L6.48759 226.746L5.55159 226.746ZM5.55159 219.09L5.55159 212.824L6.48759 212.824L6.48759 219.09L5.55159 219.09ZM5.55159 211.435L5.55159 205.169L6.48759 205.169L6.48759 211.435L5.55159 211.435ZM5.55159 203.78L5.55159 197.514L6.48759 197.514L6.48759 203.78L5.55159 203.78ZM5.55159 196.124L5.55159 189.858L6.48759 189.858L6.48759 196.124L5.55159 196.124ZM5.55159 188.469L5.55159 182.203L6.48759 182.203L6.48759 188.469L5.55159 188.469ZM5.55159 180.814L5.55159 174.548L6.48759 174.548L6.48759 180.814L5.55159 180.814ZM9.30859 168.859L0.143594 165.947L0.143594 163.412L9.3086 160.487L9.30859 161.722L5.79859 162.827L5.79859 166.532L9.30859 167.637L9.30859 168.859ZM4.78459 166.207L4.78459 163.152L0.468595 164.517L0.468595 164.842L4.78459 166.207ZM9.4516 155.354C9.4516 158.084 7.41059 159.696 4.71959 159.696C2.04159 159.696 0.000594771 158.084 0.000594804 155.354C0.000594832 152.988 1.40459 151.441 3.67959 151.168L3.67959 152.351C2.00259 152.559 1.02759 153.612 1.02759 155.354C1.02759 157.421 2.54859 158.5 4.71959 158.5C6.9036 158.5 8.42459 157.421 8.4246 155.354C8.4246 153.612 7.43659 152.559 5.7596 152.351L5.7596 151.168C8.0476 151.441 9.4516 152.988 9.4516 155.354ZM9.4516 145.312C9.4516 148.042 7.41059 149.654 4.71959 149.654C2.04159 149.654 0.000594891 148.042 0.000594924 145.312C0.000594952 142.946 1.40459 141.399 3.67959 141.126L3.67959 142.309C2.00259 142.517 1.02759 143.57 1.02759 145.312C1.02759 147.379 2.54859 148.458 4.71959 148.458C6.9036 148.458 8.4246 147.379 8.4246 145.312C8.4246 143.57 7.4366 142.517 5.7596 142.309L5.7596 141.126C8.0476 141.399 9.4516 142.946 9.4516 145.312ZM5.90259 139.665L0.143595 139.665L0.143595 138.482L5.6556 138.482C7.4886 138.482 8.4246 137.897 8.4246 135.986C8.4246 134.075 7.4886 133.464 5.6556 133.464L0.143595 133.464L0.143595 132.281L5.9026 132.281C8.1906 132.281 9.4516 133.464 9.4516 135.986C9.4516 138.508 8.1906 139.665 5.90259 139.665ZM9.3086 130.531L0.143595 130.531L0.143595 127.138C0.143595 124.993 0.624595 123.563 2.6006 123.563C4.0306 123.563 4.5636 124.304 4.7586 125.396L5.0836 125.396L5.0836 124.395C5.0836 123.758 5.4476 123.55 5.9806 123.55L9.3086 123.55L9.3086 124.72L5.6816 124.72L5.6816 129.348L9.3086 129.348L9.3086 130.531ZM4.6676 129.348L4.6676 127.138C4.6676 125.643 4.4076 124.733 2.8606 124.733C1.28759 124.733 1.15759 125.656 1.15759 127.138L1.15759 129.348L4.6676 129.348ZM9.3086 122.293L0.143595 119.381L0.143595 116.846L9.3086 113.921L9.3086 115.156L5.7986 116.261L5.7986 119.966L9.3086 121.071L9.3086 122.293ZM4.7846 119.641L4.7846 116.586L0.468595 117.951L0.468595 118.276L4.7846 119.641ZM9.4516 108.788C9.4516 111.518 7.4106 113.13 4.7196 113.13C2.0416 113.13 0.000595327 111.518 0.000595359 108.788C0.000595387 106.422 1.4046 104.875 3.6796 104.602L3.6796 105.785C2.0026 105.993 1.0276 107.046 1.0276 108.788C1.0276 110.855 2.5486 111.934 4.7196 111.934C6.9036 111.934 8.4246 110.855 8.4246 108.788C8.4246 107.046 7.4366 105.993 5.7596 105.785L5.7596 104.602C8.0476 104.875 9.4516 106.422 9.4516 108.788ZM0.143595 97.4575L0.143595 96.1965L5.4476 98.9265L5.4476 99.5375L9.3086 99.5375L9.3086 100.707L5.4476 100.707L5.4476 101.318L0.143595 104.035L0.143595 102.787L5.1356 100.291L5.1356 99.9535L0.143595 97.4575ZM5.5516 90.474L5.5516 84.208L6.4876 84.208L6.4876 90.474L5.5516 90.474ZM5.5516 82.8188L5.5516 76.5528L6.4876 76.5528L6.4876 82.8188L5.5516 82.8188ZM5.5516 75.1635L5.5516 68.8975L6.4876 68.8975L6.4876 75.1635L5.5516 75.1635ZM5.5516 67.5082L5.5516 61.2422L6.4876 61.2422L6.4876 67.5082L5.5516 67.5082ZM5.5516 59.8529L5.5516 53.5869L6.4876 53.5869L6.4876 59.8529L5.5516 59.8529ZM5.5516 52.1977L5.5516 45.9317L6.4876 45.9317L6.4876 52.1977L5.5516 52.1977ZM5.5516 44.5424L5.5516 38.2764L6.4876 38.2764L6.4876 44.5424L5.5516 44.5424ZM5.5516 36.8871L5.5516 30.6211L6.4876 30.6211L6.4876 36.8871L5.5516 36.8871ZM5.5516 29.2319L5.5516 22.9659L6.4876 22.9659L6.4876 29.2319L5.5516 29.2319ZM5.5516 21.5766L5.5516 15.3106L6.4876 15.3106L6.4876 21.5766L5.5516 21.5766ZM5.5516 13.9213L5.5516 7.6553L6.4876 7.6553L6.4876 13.9213L5.5516 13.9213ZM5.5516 6.26603L5.5516 3.12238e-05L6.4876 3.1235e-05L6.4876 6.26603L5.5516 6.26603Z" fill="black"/>
</svg>
