<svg width="227" height="10" viewBox="0 0 227 10" fill="none" xmlns="http://www.w3.org/2000/svg">
<path d="M-0.000406221 5.40706H6.26559V6.34306H-0.000406221V5.40706ZM7.65487 5.40706H13.9209V6.34306H7.65487V5.40706ZM15.3101 5.40706H21.5761V6.34306H15.3101V5.40706ZM22.9654 5.40706H29.2314V6.34306H22.9654V5.40706ZM30.6207 5.40706H36.8867V6.34306H30.6207V5.40706ZM38.276 5.40706H44.542V6.34306H38.276V5.40706ZM45.9312 5.40706H52.1972V6.34306H45.9312V5.40706ZM53.5865 5.40706H59.8525V6.34306H53.5865V5.40706ZM61.2418 5.40706H67.5078V6.34306H61.2418V5.40706ZM68.8971 5.40706H75.1631V6.34306H68.8971V5.40706ZM76.5523 5.40706H82.8183V6.34306H76.5523V5.40706ZM84.2076 5.40706H90.4736V6.34306H84.2076V5.40706ZM96.3575 -0.000938058H103.846V1.01306H100.7V9.16406H99.5165V1.01306H96.3575V-0.000938058ZM105.187 -0.000938058H110.465V1.01306H108.411V8.15006H110.465V9.16406H105.187V8.15006H107.241V1.01306H105.187V-0.000938058ZM112.21 9.16406V-0.000938058H114.576L117.007 8.83906H117.345L119.776 -0.000938058H122.129V9.16406H120.946V1.45506L121.141 0.324062H120.816L118.346 9.16406H115.98L113.523 0.324062H113.185L113.393 1.45506V9.16406H112.21ZM124.004 9.16406V-0.000938058H130.374V1.01306H125.187V4.08106H129.724V5.06906H125.187V8.15006H130.374V9.16406H124.004ZM136.373 5.40706H142.639V6.34306H136.373V5.40706ZM144.028 5.40706H150.294V6.34306H144.028V5.40706ZM151.683 5.40706H157.949V6.34306H151.683V5.40706ZM159.338 5.40706H165.604V6.34306H159.338V5.40706ZM166.994 5.40706H173.26V6.34306H166.994V5.40706ZM174.649 5.40706H180.915V6.34306H174.649V5.40706ZM182.304 5.40706H188.57V6.34306H182.304V5.40706ZM189.96 5.40706H196.226V6.34306H189.96V5.40706ZM197.615 5.40706H203.881V6.34306H197.615V5.40706ZM205.27 5.40706H211.536V6.34306H205.27V5.40706ZM212.925 5.40706H219.191V6.34306H212.925V5.40706ZM220.581 5.40706H226.847V6.34306H220.581V5.40706Z" fill="black"/>
</svg>
