<svg width="16" height="19" viewBox="0 0 16 19" fill="none" xmlns="http://www.w3.org/2000/svg">
<path d="M8.40754 0C8.28211 0 8.15264 0.00633288 8.01993 0.0166238C4.59942 0.28023 5.50653 3.82189 5.45475 5.00218C5.39244 5.86741 5.21198 6.54899 4.60427 7.39364C3.88812 8.22562 2.88309 9.57056 2.40647 10.9725C2.18151 11.6311 2.07469 12.3056 2.17423 12.9428C2.14267 12.9697 2.11273 12.9967 2.0844 13.0497C1.87401 13.2618 1.72107 13.5254 1.54871 13.7138C1.38768 13.8714 1.15625 13.9252 0.903774 14.0305C0.650492 14.1382 0.371316 14.2434 0.20462 14.5696C0.131791 14.7184 0.094568 14.8807 0.0978048 15.0453C0.0978048 15.2029 0.119653 15.3628 0.142311 15.4696C0.189245 15.7855 0.236179 16.0467 0.17387 16.2375C-0.0268128 16.7758 -0.0518982 17.1447 0.0889036 17.413C0.229705 17.6774 0.521828 17.7843 0.848747 17.8888C1.50501 18.0471 2.39433 17.9957 3.09429 18.363C3.84362 18.7327 4.60427 18.8941 5.21117 18.735C5.63682 18.644 5.9961 18.3685 6.18869 17.987C6.6637 17.9846 7.18402 17.774 8.0175 17.7226C8.58313 17.6766 9.29119 17.9339 10.1036 17.8801C10.1239 17.987 10.1546 18.0376 10.1959 18.1445L10.1983 18.1469C10.5147 18.7627 11.099 19.043 11.7229 18.9947C12.3467 18.9472 13.0111 18.5704 13.5492 17.9608C14.0598 17.3553 14.9111 17.1027 15.4735 16.771C15.7551 16.6135 15.9825 16.3998 15.9987 16.0958C16.0173 15.7792 15.8377 15.453 15.4209 15.0058V14.929L15.4185 14.9266C15.2809 14.7683 15.2162 14.5031 15.145 14.1936C15.0762 13.8761 14.9977 13.5714 14.7469 13.3655H14.7444C14.6967 13.3228 14.6449 13.3125 14.5923 13.2587C14.547 13.2286 14.4944 13.2096 14.4385 13.208C14.7873 12.1963 14.6522 11.1894 14.2986 10.2838C13.8672 9.16763 13.1131 8.19554 12.5385 7.52663C11.8944 6.73106 11.2632 5.97745 11.2754 4.85969C11.2972 3.15615 11.4671 0.00474966 8.40754 0ZM8.83561 2.69543H8.84613C9.01849 2.69543 9.16657 2.74451 9.3187 2.85217C9.47326 2.95904 9.58574 3.11498 9.67394 3.2741C9.75891 3.47913 9.8018 3.63745 9.80827 3.84722C9.80827 3.83139 9.81313 3.81556 9.81313 3.80052V3.88285C9.81151 3.87731 9.80989 3.87097 9.80989 3.86622L9.80665 3.84722C9.80503 4.03959 9.76377 4.22957 9.68527 4.4061C9.64724 4.50505 9.58898 4.59609 9.51291 4.67129C9.48944 4.65862 9.46679 4.64754 9.4417 4.63804C9.35674 4.60242 9.28067 4.58738 9.21108 4.53276C9.15362 4.51059 9.09374 4.49239 9.03386 4.48051C9.07351 4.43381 9.1512 4.37523 9.18114 4.32377C9.22402 4.22245 9.24749 4.11479 9.25235 4.00555V3.99051C9.25397 3.88364 9.23778 3.77598 9.20299 3.67386C9.16657 3.56699 9.12126 3.51475 9.0549 3.40946C8.98693 3.35722 8.91976 3.30497 8.83884 3.30497H8.8259C8.75064 3.30497 8.68348 3.32872 8.61388 3.40946C8.53701 3.48388 8.47956 3.57333 8.448 3.67386C8.40511 3.7744 8.38002 3.88285 8.37517 3.99051V4.00555C8.37679 4.076 8.38164 4.14724 8.39135 4.21691C8.23518 4.16387 8.03692 4.11004 7.90017 4.057C7.89207 4.00555 7.88722 3.95251 7.8856 3.89947V3.88364C7.87913 3.67465 7.9204 3.46725 8.00698 3.27489C8.07333 3.10153 8.19472 2.9535 8.35494 2.85296C8.49331 2.75084 8.66163 2.69543 8.83561 2.69543ZM6.43874 2.74214H6.46787C6.58278 2.74214 6.68636 2.78013 6.79074 2.849C6.90889 2.95112 7.00437 3.07699 7.06911 3.2171C7.14194 3.37463 7.18321 3.53454 7.19292 3.74511V3.74827C7.19858 3.85435 7.19777 3.90739 7.1913 3.95884V4.02217C7.16702 4.02771 7.14599 4.03642 7.12414 4.04117C7.00114 4.08471 6.90241 4.14804 6.80612 4.19949C6.81583 4.12904 6.81664 4.05779 6.80855 3.98813V3.97626C6.79884 3.87097 6.77699 3.81873 6.74219 3.71265C6.71711 3.63191 6.67098 3.55987 6.60786 3.50129C6.56821 3.46567 6.5148 3.44746 6.45978 3.45063H6.44279C6.38533 3.45538 6.33759 3.48308 6.29227 3.55512C6.24048 3.61607 6.20731 3.69049 6.19517 3.76885C6.17332 3.85435 6.16685 3.94222 6.17656 4.03088V4.04196C6.18627 4.14883 6.2065 4.20107 6.2421 4.30636C6.27852 4.41243 6.32059 4.46468 6.37562 4.51851C6.38452 4.52563 6.39261 4.53276 6.40313 4.53751C6.34649 4.58263 6.30846 4.59292 6.26071 4.64517C6.23077 4.66733 6.19598 4.69266 6.15471 4.699C6.07055 4.60004 5.9961 4.49318 5.93218 4.38077C5.85449 4.21453 5.81403 4.03404 5.80675 3.85277C5.79299 3.67386 5.81565 3.49496 5.87149 3.32397C5.91599 3.16802 5.99449 3.02395 6.10049 2.90046C6.20407 2.79517 6.31088 2.74214 6.43874 2.74214ZM7.54816 4.09262C7.81601 4.09262 8.1405 4.14408 8.53135 4.40848C8.76844 4.5668 8.95456 4.62142 9.38344 4.77895H9.38587C9.59221 4.88661 9.71359 4.98952 9.77267 5.0948V4.9911C9.83174 5.10747 9.83578 5.24283 9.78561 5.36316C9.68608 5.60935 9.36806 5.87295 8.92462 6.03048V6.03207C8.70775 6.13893 8.51921 6.29567 8.29748 6.40017C8.07414 6.50703 7.82167 6.63132 7.47857 6.61153C7.35557 6.61786 7.23176 6.59965 7.11604 6.55849C7.02703 6.51099 6.93964 6.45875 6.85548 6.40175C6.69769 6.29488 6.56174 6.13893 6.36025 6.03365V6.02969H6.3562C6.03252 5.83496 5.85773 5.62439 5.80108 5.46686C5.74525 5.25471 5.79704 5.09559 5.95726 4.99189C6.13852 4.88502 6.26476 4.77737 6.34811 4.72591C6.43227 4.66733 6.46382 4.64517 6.49053 4.62221H6.49215V4.61984C6.6289 4.45993 6.84496 4.24857 7.17107 4.14408C7.28355 4.11558 7.40898 4.09262 7.54816 4.09262ZM9.81313 5.78904C10.1036 6.91075 10.7817 8.53989 11.2179 9.32991C11.4493 9.75263 11.9098 10.6432 12.1097 11.7237C12.2359 11.7198 12.3759 11.738 12.5248 11.7744C13.0475 10.4516 12.0829 9.02989 11.6435 8.63488C11.4647 8.47577 11.4558 8.36969 11.544 8.36969C12.0206 8.79241 12.6486 9.6141 12.876 10.5522C12.9804 10.9757 13.0046 11.4261 12.893 11.8741C12.9472 11.8963 13.0022 11.9224 13.0588 11.9272C13.8939 12.3499 14.2023 12.6697 14.0542 13.1439V13.1099C14.0048 13.1075 13.9571 13.1099 13.9077 13.1099H13.8956C14.0178 12.7402 13.7483 12.4568 13.0338 12.1409C12.2933 11.8243 11.7018 11.8749 11.6007 12.509C11.595 12.5431 11.591 12.5613 11.5869 12.6159C11.5319 12.6341 11.4744 12.6578 11.4178 12.6665C11.0698 12.8787 10.8821 13.1961 10.7761 13.6062C10.6709 14.0281 10.6385 14.5213 10.6102 15.0857V15.0881C10.5932 15.3525 10.4718 15.7515 10.3521 16.1575C9.13825 17.0062 7.4551 17.375 6.02362 16.4219C5.93379 16.2692 5.82455 16.1259 5.69832 16C5.63843 15.9011 5.56237 15.8124 5.47578 15.7356C5.62306 15.7356 5.7493 15.7127 5.85207 15.6826C5.9694 15.6295 6.06003 15.5338 6.10616 15.4182C6.19355 15.2068 6.10616 14.8664 5.82698 14.4975C5.5478 14.1279 5.07361 13.7099 4.38012 13.2935C3.87032 12.9777 3.58224 12.6048 3.44953 12.1884C3.31602 11.7657 3.33382 11.3295 3.4374 10.8862C3.63565 10.0392 4.14383 9.21592 4.46832 8.699C4.55491 8.64755 4.49826 8.80587 4.13817 9.47003C3.81772 10.0645 3.21486 11.4467 4.03944 12.5209C4.07019 11.738 4.24822 10.9654 4.563 10.2442C5.01939 9.23255 5.97345 7.47042 6.0487 6.07402C6.08754 6.10252 6.2243 6.18089 6.28256 6.23393C6.45897 6.33921 6.59006 6.49753 6.75999 6.60203C6.93074 6.76114 7.14599 6.86722 7.46886 6.86722C7.50042 6.86959 7.52955 6.87197 7.55868 6.87197C7.89126 6.87197 8.14859 6.76589 8.36465 6.65981C8.59932 6.55374 8.78624 6.39542 8.96346 6.34317H8.96751C9.34541 6.2363 9.644 6.02494 9.81313 5.78904ZM11.5821 12.8803C11.612 13.356 11.8596 13.8658 12.2958 13.9703C12.7716 14.0764 13.4562 13.7067 13.7451 13.3647L13.9158 13.3576C14.1707 13.3513 14.3827 13.3655 14.6012 13.569L14.6036 13.5714C14.7719 13.7289 14.8504 13.9917 14.92 14.2648C14.9888 14.5822 15.0446 14.8823 15.251 15.1087C15.6443 15.5258 15.7729 15.8259 15.7656 16.0111L15.7681 16.0064V16.0206L15.7656 16.0111C15.7535 16.2185 15.6159 16.3246 15.3627 16.4821C14.8529 16.7995 13.9498 17.0457 13.3744 17.7249C12.8744 18.3084 12.265 18.6266 11.7269 18.6677C11.1896 18.7097 10.7259 18.5094 10.4532 17.9569L10.4492 17.9545C10.2792 17.6371 10.3521 17.1431 10.4945 16.6167C10.6369 16.0879 10.8408 15.552 10.8691 15.1142C10.8991 14.549 10.9306 14.0574 11.0269 13.6782C11.124 13.3101 11.2762 13.0473 11.5456 12.8993L11.5821 12.8819V12.8803ZM2.83049 12.9191H2.83858C2.88147 12.9191 2.92355 12.923 2.96563 12.9302C3.26989 12.9737 3.53693 13.1938 3.79345 13.5254L4.52982 14.8427L4.53225 14.8451C4.72889 15.267 5.14239 15.6873 5.4944 16.1417C5.84559 16.6151 6.11748 17.037 6.08431 17.3845V17.3893C6.03818 17.9783 5.6967 18.2981 5.17395 18.4136C4.65201 18.5205 3.94396 18.4152 3.2359 18.0463C2.45259 17.622 1.52201 17.6751 0.924004 17.5698C0.625407 17.5175 0.429579 17.4107 0.338948 17.2523C0.249126 17.0948 0.247508 16.7766 0.43848 16.2787V16.2763L0.440099 16.2739C0.534776 16.0095 0.464375 15.6778 0.41825 15.3881C0.373744 15.0707 0.351086 14.8269 0.453046 14.644C0.582519 14.3796 0.773491 14.3281 1.01059 14.2221C1.2493 14.1152 1.52929 14.0622 1.75182 13.8508H1.75344V13.8484C1.9606 13.6363 2.11354 13.3727 2.29399 13.1851C2.44774 13.0259 2.60149 12.9191 2.83049 12.9191ZM8.6236 5.736C8.27159 5.89512 7.85889 6.15952 7.4195 6.15952C6.98091 6.15952 6.63457 5.94816 6.38452 5.79063C6.2591 5.68455 6.15794 5.57847 6.08188 5.52544C5.94917 5.41936 5.96535 5.26104 6.022 5.26104C6.1102 5.27371 6.12639 5.36791 6.18303 5.42015C6.26071 5.4724 6.35701 5.57768 6.47515 5.68376C6.71063 5.84208 7.02541 6.05344 7.41869 6.05344C7.81115 6.05344 8.27078 5.84208 8.54996 5.68455C8.70775 5.57768 8.91005 5.42015 9.07432 5.31487C9.20056 5.20642 9.19489 5.10272 9.30009 5.10272C9.40448 5.11538 9.3276 5.20879 9.18114 5.36632C9.03467 5.47319 8.80809 5.63151 8.62279 5.7368V5.736H8.6236ZM7.74803 4.4821V4.46468C7.74318 4.44964 7.75855 4.43143 7.7715 4.4251C7.83138 4.39106 7.91716 4.40373 7.98189 4.42827C8.03288 4.42827 8.11137 4.4813 8.10328 4.53513C8.09842 4.57392 8.03449 4.58738 7.99403 4.58738C7.94953 4.58738 7.91959 4.55334 7.87993 4.53355C7.83786 4.5193 7.76179 4.52722 7.74803 4.4821ZM7.30216 4.4821C7.28598 4.52801 7.21072 4.52088 7.16783 4.53434C7.1298 4.55413 7.09824 4.58817 7.05535 4.58817C7.01408 4.58817 6.94935 4.57313 6.94449 4.53434C6.93721 4.4821 7.0157 4.42906 7.06587 4.42906C7.13142 4.40452 7.21477 4.39185 7.27546 4.4251C7.29083 4.43222 7.30459 4.44885 7.29973 4.46468V4.4813H7.30216V4.4821Z" fill="black"/>
</svg>
