<svg width="48" height="48" viewBox="0 0 48 48" fill="none" xmlns="http://www.w3.org/2000/svg">
<circle cx="24" cy="24" r="23.5"  stroke="black"/>
<path d="M16.9161 26.3258L12.4001 24.899C12.4001 24.899 11.8605 24.6861 12.0346 24.2054C12.0707 24.1065 12.1428 24.0213 12.3577 23.8753C13.3585 23.1984 30.883 17.0911 30.883 17.0911C30.883 17.0911 31.3787 16.9299 31.6705 17.0364C31.8038 17.085 31.8901 17.1413 31.9607 17.3436C31.9873 17.4166 32.0015 17.5748 31.9999 17.73C31.9999 17.8426 31.9842 17.946 31.9732 18.1103C31.8666 19.7805 28.6729 32.2445 28.6729 32.2445C28.6729 32.2445 28.4815 32.9731 27.7976 32.999C27.5482 33.0081 27.2454 32.9595 26.8831 32.6567C25.5388 31.5357 20.8957 28.5087 19.8698 27.8439C19.8118 27.8059 19.7961 27.7572 19.7851 27.7101C19.771 27.6401 19.8494 27.5534 19.8494 27.5534C19.8494 27.5534 27.9356 20.5836 28.1505 19.852C28.1678 19.7957 28.105 19.7668 28.0203 19.7911C27.4839 19.9828 18.1726 25.6839 17.1451 26.3137C17.0855 26.3502 16.9161 26.3274 16.9161 26.3274V26.3258Z"  stroke="black"/>
</svg>
