<?xml version="1.0" encoding="UTF-8"?>
<svg id="Layer_1" xmlns="http://www.w3.org/2000/svg" version="1.1" viewBox="0 0 81.5 101.7">
  <!-- Generator: Adobe Illustrator 29.8.3, SVG Export Plug-In . SVG Version: 2.1.1 Build 3)  -->
  <defs>
    <style>
      .st0 {
        fill: #ffd152;
        stroke: #000;
        stroke-linecap: round;
        stroke-linejoin: round;
        stroke-width: 2px;
      }
    </style>
  </defs>
  <path class="st0" d="M67.8,68.6c-3.1-4.6-16.7-6.6-28-7.6l9.6-43.3c1.1-4.9-2-9.8-6.9-10.8h0c-4.9-1.1-9.8,2-10.8,6.9l-8.4,37.6V14.5c0-5-4.1-9.1-9.1-9.1S5.2,9.5,5.2,14.5v83.6h64.5c6-11.7,3.7-21.3-1.8-29.5Z"/>
  <rect class="st0" x="39.7" y="43.1" width="18.2" height="39.3" rx="9.1" ry="9.1" transform="translate(14.8 -9.1) rotate(12.6)"/>
  <rect class="st0" x="56.8" y="54" width="18.2" height="31.3" rx="9.1" ry="9.1" transform="translate(16.7 -12.6) rotate(12.6)"/>
  <path class="st0" d="M15.5,69.5l18.3-10.6c4.3-2.5,9.9-1,12.4,3.3h0c2.5,4.3,1,9.9-3.3,12.4l-18.3,10.6"/>
</svg>