<svg width="143" height="29" viewBox="0 0 143 29" fill="none" xmlns="http://www.w3.org/2000/svg">
<path fill-rule="evenodd" clip-rule="evenodd" d="M32.7361 28.4934L16.368 0L0 28.4934H32.7361ZM49.2456 27.1963L62.9245 1.29523H57.0078L47.5718 20.1055L38.1358 1.29523H32.219L45.898 27.1963H49.2456ZM142.467 1.29523V27.1964H137.569V1.29523H142.467ZM115.201 17.5289C115.201 15.5103 115.622 13.7349 116.464 12.2028C117.306 10.6706 118.48 9.49107 119.985 8.66418C121.49 7.83729 123.25 7.42378 125.266 7.42378C127.051 7.42378 128.659 7.81297 130.087 8.59121C131.516 9.36945 132.651 10.5247 133.493 12.0568C134.335 13.5891 134.769 15.4617 134.794 17.6749V18.8058H120.368C120.469 20.4109 120.941 21.6756 121.783 22.5997C122.651 23.4996 123.812 23.9495 125.266 23.9495C126.184 23.9495 127.026 23.7063 127.791 23.2199C128.556 22.7335 129.131 22.0769 129.513 21.25L134.527 21.6148C133.914 23.4388 132.766 24.898 131.083 25.9924C129.398 27.0869 127.46 27.634 125.266 27.634C123.25 27.634 121.49 27.2206 119.985 26.3937C118.48 25.5668 117.306 24.3873 116.464 22.8551C115.622 21.3229 115.201 19.5476 115.201 17.5289ZM129.743 15.7049C129.564 14.1241 129.067 12.9689 128.25 12.2392C127.434 11.4853 126.439 11.1083 125.266 11.1083C123.913 11.1083 122.817 11.5096 121.975 12.3122C121.132 13.1148 120.61 14.2457 120.405 15.7049H129.743ZM106.936 12.2392C107.753 12.8959 108.263 13.8079 108.467 14.9753L113.518 14.7199C113.339 13.2364 112.817 11.9474 111.949 10.853C111.081 9.75857 109.959 8.91955 108.581 8.33584C107.23 7.7278 105.737 7.42378 104.104 7.42378C102.089 7.42378 100.329 7.83729 98.823 8.66418C97.318 9.49107 96.1442 10.6706 95.3025 12.2028C94.4607 13.7349 94.0398 15.5103 94.0398 17.5289C94.0398 19.5476 94.4607 21.3229 95.3025 22.8551C96.1442 24.3873 97.318 25.5668 98.823 26.3937C100.329 27.2206 102.089 27.634 104.104 27.634C105.788 27.634 107.319 27.33 108.696 26.7221C110.074 26.0897 111.196 25.202 112.064 24.0589C112.932 22.9159 113.454 21.5783 113.633 20.0461L108.543 19.8272C108.365 21.1162 107.867 22.1133 107.051 22.8186C106.234 23.4996 105.252 23.8401 104.104 23.8401C102.523 23.8401 101.298 23.2929 100.43 22.1984C99.5632 21.104 99.1297 19.5476 99.1297 17.5289C99.1297 15.5103 99.5632 13.9539 100.43 12.8594C101.298 11.765 102.523 11.2178 104.104 11.2178C105.201 11.2178 106.145 11.5583 106.936 12.2392ZM82.0881 7.86071H86.6465L86.7781 11.582C87.1017 10.5287 87.5513 9.71069 88.1277 9.12803C88.9632 8.28319 90.1285 7.86071 91.6223 7.86071H93.4837V11.8437H91.5845C90.5207 11.8437 89.6474 11.9886 88.9632 12.2782C88.3048 12.5679 87.7985 13.0265 87.4442 13.6542C87.115 14.2818 86.9504 15.0784 86.9504 16.0439V27.1963H82.0881V7.86071ZM61.0627 12.2028C60.2209 13.7349 59.7999 15.5103 59.7999 17.5289C59.7999 19.5476 60.2209 21.3229 61.0627 22.8551C61.9046 24.3873 63.0782 25.5668 64.5834 26.3937C66.0886 27.2206 67.849 27.634 69.8644 27.634C72.0581 27.634 73.9973 27.0869 75.6809 25.9924C77.3651 24.898 78.513 23.4388 79.125 21.6148L74.1122 21.25C73.7298 22.0769 73.1555 22.7335 72.3901 23.2199C71.6246 23.7063 70.7828 23.9495 69.8644 23.9495C68.4102 23.9495 67.2494 23.4996 66.382 22.5997C65.5401 21.6756 65.0681 20.4109 64.9661 18.8058H79.3933V17.6749C79.3674 15.4617 78.9339 13.5891 78.0921 12.0568C77.2503 10.5247 76.1151 9.36945 74.6864 8.59121C73.2578 7.81297 71.6505 7.42378 69.8644 7.42378C67.849 7.42378 66.0886 7.83729 64.5834 8.66418C63.0782 9.49107 61.9046 10.6706 61.0627 12.2028ZM72.8495 12.2392C73.6653 12.9689 74.1633 14.1241 74.3419 15.7049H65.0043C65.2085 14.2457 65.7315 13.1148 66.5733 12.3122C67.4153 11.5096 68.5122 11.1083 69.8644 11.1083C71.0377 11.1083 72.0329 11.4853 72.8495 12.2392Z" fill="black"/>
</svg>
